# xmcd
#
# Track frame offsets: 
#        150
#        18916
#        40354
#        51315
#        72719
#        86023
#        104846
#        122399
#        137256
#        156932
#        175613
#        192352
#
# Disc length: 2779 seconds
#
# Revision: 1
# Processed by: cddbd v1.5.2PL0 Copyright (c) Steve Scherf et al.
# Submitted via: ExactAudioCopy v1.0b3
#
DISCID=a40ad90c
DTITLE=James Son Thomas - Mississippi Delta Blues Man
DYEAR=1981
DGENRE=Blues
TTITLE0=Big Leg Woman
TTITLE1=High Brown
TTITLE2=Whiskey Headed Woman
TTITLE3=Devil Blues
TTITLE4=Take A Little Walk
TTITLE5=Cool Water Blues
TTITLE6=Lonesome Road Blues
TTITLE7=Black Rat
TTITLE8=Hard Time Blues
TTITLE9=Catfish Blues
TTITLE10=My Black Mare
TTITLE11=Bull Cow Blues
EXTD=
EXTT0=
EXTT1=
EXTT2=
EXTT3=
EXTT4=
EXTT5=
EXTT6=
EXTT7=
EXTT8=
EXTT9=
EXTT10=
EXTT11=
PLAYORDER=
